<svg xmlns="http://www.w3.org/2000/svg" xmlns:xlink="http://www.w3.org/1999/xlink" width="500" zoomAndPan="magnify" viewBox="0 0 375 374.999991" height="500" preserveAspectRatio="xMidYMid meet" version="1.0"><defs><clipPath id="f45b3c524d"><path d="M 0 34 L 373 34 L 373 342.5625 L 0 342.5625 Z M 0 34 " clip-rule="nonzero"/></clipPath></defs><g clip-path="url(#f45b3c524d)"><path fill="#000000" d="M 356.097656 259.5625 C 353.898438 264.96875 350.746094 270.707031 346.867188 276.433594 L 335.316406 264.867188 C 334.953125 264.511719 334.566406 264.164062 334.171875 263.84375 C 326.5625 257.6875 313.875 260.007812 304.644531 269.257812 C 302.636719 271.265625 300.925781 273.476562 299.554688 275.796875 C 299.28125 276.253906 299.019531 276.71875 298.777344 277.175781 C 294.671875 285.03125 294.820312 293.277344 299.167969 298.738281 C 299.328125 298.945312 299.492188 299.140625 299.660156 299.328125 C 299.847656 299.542969 300.050781 299.753906 300.257812 299.960938 L 311.808594 311.527344 C 308.003906 314.117188 304.214844 316.371094 300.46875 318.257812 C 289.304688 323.886719 279.414062 325.835938 273.339844 323.601562 C 272.015625 323.113281 270.878906 322.40625 269.988281 321.507812 L 269.980469 321.507812 C 269.042969 320.558594 268.335938 319.421875 267.839844 318 C 265.78125 312.160156 267.539062 302.730469 272.667969 292.121094 C 277.824219 281.472656 285.84375 270.53125 295.882812 260.488281 C 299.800781 256.554688 303.914062 252.894531 308.105469 249.589844 C 319.996094 240.222656 332.535156 233.832031 342.527344 232.070312 C 346.8125 231.3125 350.546875 231.4375 353.339844 232.421875 C 354.742188 232.910156 355.882812 233.613281 356.828125 234.5625 C 361.050781 238.78125 360.777344 248.125 356.097656 259.5625 Z M 349.113281 300.03125 C 348.53125 302.949219 346.695312 306.121094 344.078125 308.742188 C 341.460938 311.363281 338.292969 313.199219 335.378906 313.78125 C 333.402344 314.179688 331.738281 313.9375 330.933594 313.128906 C 329.144531 311.339844 329.964844 305.320312 335.316406 299.96875 C 339.019531 296.261719 343.039062 294.726562 345.75 294.726562 C 346.960938 294.726562 347.910156 295.03125 348.460938 295.582031 C 349.265625 296.386719 349.507812 298.054688 349.113281 300.03125 Z M 309.035156 291.207031 C 308.996094 291.167969 308.957031 291.121094 308.917969 291.074219 C 308.902344 291.058594 308.886719 291.035156 308.878906 291.019531 C 307.894531 289.808594 307.757812 286.769531 309.761719 282.929688 C 309.894531 282.675781 310.035156 282.425781 310.203125 282.148438 C 311.0625 280.683594 312.140625 279.300781 313.410156 278.03125 C 318.5625 272.871094 324.433594 271.910156 326.378906 273.5 C 326.402344 273.515625 326.417969 273.53125 326.441406 273.546875 C 326.480469 273.578125 326.515625 273.609375 326.546875 273.648438 L 337.027344 284.132812 C 333.371094 285.605469 329.761719 287.972656 326.554688 291.199219 C 323.332031 294.417969 320.972656 298.023438 319.5 301.683594 Z M 248.34375 317.386719 C 238.320312 319.15625 230.34375 317.714844 225.773438 313.128906 L 225.742188 313.109375 C 219.46875 306.785156 219.113281 294.230469 224.773438 278.648438 C 231.085938 261.253906 243.890625 242.339844 260.824219 225.386719 C 277.757812 208.433594 296.648438 195.613281 314.023438 189.292969 C 321.375 186.617188 328.050781 185.285156 333.714844 185.285156 C 340.042969 185.285156 345.109375 186.949219 348.4375 190.261719 L 348.460938 190.292969 C 353.109375 194.945312 354.550781 202.808594 352.738281 212.914062 L 348.066406 208.238281 C 340.398438 200.5625 327.601562 199.523438 312.03125 205.316406 C 298.042969 210.511719 282.96875 220.757812 269.585938 234.15625 C 256.199219 247.558594 245.96875 262.652344 240.777344 276.65625 C 234.992188 292.246094 236.027344 305.058594 243.695312 312.734375 Z M 207.246094 261.101562 C 213.566406 243.703125 226.371094 224.789062 243.300781 207.84375 C 260.226562 190.890625 279.121094 178.070312 296.492188 171.742188 C 312.078125 166.074219 324.636719 166.429688 330.933594 172.742188 L 331.125 172.929688 C 324.644531 173.269531 317.476562 174.828125 309.785156 177.628906 C 290.746094 184.5625 270.242188 198.40625 252.054688 216.605469 C 233.875 234.816406 220.046875 255.34375 213.125 274.40625 C 210.328125 282.109375 208.769531 289.28125 208.429688 295.773438 L 208.242188 295.582031 C 201.9375 289.273438 201.582031 276.703125 207.246094 261.101562 Z M 112.171875 230.886719 L 208.714844 230.886719 C 203.386719 239.214844 199.101562 247.582031 196.042969 255.703125 L 112.171875 255.703125 Z M 99.777344 317.746094 C 99.777344 324.585938 94.214844 330.152344 87.382812 330.152344 C 80.550781 330.152344 74.988281 324.585938 74.988281 317.746094 L 74.988281 168.84375 C 74.988281 162 80.550781 156.433594 87.382812 156.433594 C 94.214844 156.433594 99.777344 162 99.777344 168.84375 Z M 50.203125 286.722656 C 43.367188 286.722656 37.808594 281.15625 37.808594 274.316406 L 37.808594 212.273438 C 37.808594 205.433594 43.367188 199.863281 50.203125 199.863281 C 57.039062 199.863281 62.597656 205.433594 62.597656 212.273438 L 62.597656 274.316406 C 62.597656 281.15625 57.039062 286.722656 50.203125 286.722656 Z M 85.886719 114.265625 C 90.472656 101.90625 99.691406 88.394531 111.84375 76.226562 C 124 64.058594 137.492188 54.832031 149.839844 50.238281 C 158.941406 46.851562 166.617188 46.4375 171.039062 48.980469 C 154.136719 56.527344 136.484375 69.101562 120.605469 85 C 104.78125 100.851562 92.164062 118.664062 84.632812 135.507812 C 82.09375 131.082031 82.503906 123.386719 85.886719 114.265625 Z M 94.316406 76.226562 C 93.511719 75.421875 93.269531 73.753906 93.664062 71.777344 C 94.246094 68.859375 96.082031 65.6875 98.699219 63.066406 C 101.316406 60.445312 104.484375 58.605469 107.398438 58.023438 C 109.375 57.628906 111.039062 57.875 111.84375 58.679688 L 112.203125 59.035156 C 109.101562 61.675781 106.042969 64.480469 103.085938 67.457031 C 100.109375 70.417969 97.3125 73.480469 94.671875 76.582031 Z M 217.003906 58.671875 L 217.199219 58.867188 C 210.714844 59.207031 203.550781 60.765625 195.859375 63.566406 C 176.816406 70.503906 156.324219 84.347656 138.136719 102.550781 C 123.167969 117.53125 111.179688 134.058594 103.542969 150.050781 C 100.835938 147.707031 97.632812 145.957031 94.097656 144.957031 C 100.589844 128.304688 113.136719 110.03125 129.375 93.777344 C 146.300781 76.824219 165.191406 64.003906 182.566406 57.679688 C 198.152344 52.003906 210.707031 52.367188 217.003906 58.671875 Z M 215.867188 145.269531 L 195.097656 124.476562 C 191.304688 120.675781 185.601562 119.203125 179.453125 120.4375 C 174.128906 121.5 168.792969 124.492188 164.425781 128.867188 C 160.054688 133.242188 157.066406 138.585938 156.003906 143.914062 C 154.773438 150.070312 156.246094 155.777344 160.039062 159.578125 L 180.808594 180.371094 C 152.402344 202.117188 123.710938 210.234375 112.171875 199.355469 L 112.171875 168.839844 C 112.171875 166.8125 111.921875 164.851562 111.464844 162.976562 C 117.957031 146.039062 130.464844 127.773438 146.902344 111.324219 C 163.828125 94.371094 182.722656 81.550781 200.09375 75.222656 C 215.679688 69.546875 228.234375 69.910156 234.535156 76.222656 C 245.859375 87.5625 237.785156 116.566406 215.867188 145.269531 Z M 226.042969 208.105469 L 168.808594 150.808594 C 168.003906 150 167.761719 148.332031 168.160156 146.347656 C 168.738281 143.4375 170.566406 140.257812 173.183594 137.636719 C 175.804688 135.015625 178.980469 133.1875 181.882812 132.605469 C 183.867188 132.210938 185.53125 132.449219 186.339844 133.257812 L 243.566406 190.5625 C 240.503906 193.273438 237.492188 196.105469 234.535156 199.0625 C 231.582031 202.023438 228.753906 205.039062 226.042969 208.105469 Z M 112.171875 213.828125 C 116.414062 215.5625 121.25 216.417969 126.539062 216.417969 C 144.207031 216.417969 166.949219 206.933594 189.644531 189.21875 L 218.082031 217.679688 C 217.871094 217.945312 217.679688 218.207031 217.476562 218.472656 L 112.171875 218.472656 Z M 273.285156 168.839844 C 273.285156 165.527344 274.582031 162.410156 276.910156 160.066406 C 279.257812 157.722656 282.371094 156.429688 285.679688 156.429688 C 288.777344 156.429688 291.660156 157.570312 293.867188 159.515625 C 293.332031 159.695312 292.800781 159.878906 292.257812 160.082031 C 286.042969 162.339844 279.675781 165.347656 273.285156 168.992188 Z M 262.628906 284.480469 C 260.785156 288.0625 259.136719 291.761719 257.800781 295.570312 C 256.648438 298.871094 255.046875 302.992188 255.046875 306.535156 L 252.457031 303.953125 C 248.539062 300.027344 248.515625 291.433594 252.394531 280.972656 C 256.980469 268.601562 266.199219 255.09375 278.351562 242.933594 C 290.5 230.765625 303.992188 221.535156 316.347656 216.945312 C 326.796875 213.058594 335.378906 213.082031 339.304688 217.015625 L 341.902344 219.613281 C 341.398438 219.691406 340.894531 219.753906 340.375 219.84375 C 328.261719 221.984375 314.078125 229.082031 300.4375 239.839844 C 295.867188 243.4375 291.382812 247.429688 287.113281 251.703125 C 276.804688 262.027344 268.375 273.320312 262.628906 284.480469 Z M 13.023438 255.699219 L 13.023438 230.882812 L 25.414062 230.882812 L 25.414062 255.699219 Z M 365.597656 225.785156 L 365.597656 225.777344 L 363 223.1875 C 368.222656 205.25 366.207031 190.515625 357.230469 181.511719 C 357.207031 181.488281 357.175781 181.472656 357.152344 181.441406 L 339.691406 163.960938 C 332.203125 156.460938 320.855469 153.808594 306.964844 156.113281 C 302.566406 148.710938 294.582031 144.019531 285.679688 144.019531 C 279.074219 144.019531 272.84375 146.59375 268.152344 151.296875 C 263.464844 155.988281 260.894531 162.222656 260.894531 168.839844 L 260.894531 176.855469 C 258.289062 178.671875 255.703125 180.578125 253.132812 182.589844 L 224.695312 154.117188 C 251.992188 119.046875 259.722656 83.894531 243.300781 67.445312 L 225.773438 49.894531 C 216.734375 40.847656 202.09375 38.855469 184.136719 44.105469 L 181.550781 41.527344 C 173.890625 33.847656 161.09375 32.8125 145.523438 38.601562 C 137.878906 41.445312 129.902344 45.804688 122.0625 51.355469 L 120.605469 49.898438 C 116.808594 46.097656 111.109375 44.625 104.964844 45.855469 C 99.636719 46.921875 94.300781 49.914062 89.929688 54.289062 C 85.570312 58.660156 82.582031 64 81.511719 69.335938 C 80.28125 75.488281 81.75 81.195312 85.554688 84.996094 L 87.011719 86.453125 C 81.464844 94.300781 77.113281 102.289062 74.269531 109.945312 C 68.492188 125.53125 69.519531 138.34375 77.1875 146.015625 L 77.328125 146.160156 C 68.660156 150.03125 62.597656 158.734375 62.597656 168.839844 L 62.597656 190.785156 C 58.945312 188.667969 54.714844 187.449219 50.203125 187.449219 C 36.535156 187.449219 25.414062 198.585938 25.414062 212.269531 L 25.414062 218.472656 L 6.824219 218.472656 C 3.402344 218.472656 0.628906 221.25 0.628906 224.675781 L 0.628906 261.902344 C 0.628906 265.332031 3.402344 268.105469 6.824219 268.105469 L 25.414062 268.105469 L 25.414062 274.3125 C 25.414062 287.992188 36.535156 299.128906 50.203125 299.128906 C 54.714844 299.128906 58.945312 297.910156 62.597656 295.792969 L 62.597656 317.742188 C 62.597656 331.421875 73.71875 342.558594 87.382812 342.558594 C 101.046875 342.558594 112.171875 331.421875 112.171875 317.742188 L 112.171875 268.105469 L 192.300781 268.105469 C 188.941406 283.601562 191.371094 296.234375 199.476562 304.347656 L 216.933594 321.828125 C 216.964844 321.851562 216.980469 321.882812 217.003906 321.90625 C 222.738281 327.636719 230.769531 330.539062 240.476562 330.539062 C 246.019531 330.539062 252.109375 329.582031 258.625 327.683594 L 261.21875 330.28125 L 261.226562 330.28125 C 263.394531 332.460938 266.042969 334.128906 269.074219 335.246094 C 272.039062 336.339844 275.371094 336.875 278.996094 336.875 C 286.882812 336.875 296.152344 334.324219 306.042969 329.34375 C 310.910156 326.886719 315.820312 323.90625 320.714844 320.449219 L 322.164062 321.90625 L 322.171875 321.898438 C 325.09375 324.820312 329.136719 326.375 333.644531 326.375 C 335 326.375 336.394531 326.234375 337.8125 325.945312 C 343.140625 324.882812 348.476562 321.882812 352.847656 317.515625 C 357.207031 313.140625 360.195312 307.800781 361.265625 302.464844 C 362.496094 296.3125 361.027344 290.605469 357.222656 286.804688 L 357.230469 286.796875 L 355.765625 285.332031 C 360.746094 278.265625 364.796875 271.0625 367.570312 264.253906 C 374.402344 247.554688 373.699219 233.898438 365.597656 225.785156 " fill-opacity="1" fill-rule="nonzero"/></g></svg>