<svg xmlns="http://www.w3.org/2000/svg" xmlns:xlink="http://www.w3.org/1999/xlink" width="500" zoomAndPan="magnify" viewBox="0 0 375 374.999991" height="500" preserveAspectRatio="xMidYMid meet" version="1.0"><defs><clipPath id="06878fc5ab"><path d="M 0 61.40625 L 375 61.40625 L 375 317.15625 L 0 317.15625 Z M 0 61.40625 " clip-rule="nonzero"/></clipPath><clipPath id="605d780cee"><path d="M 169 225.617188 L 211 225.617188 L 211 275.867188 L 169 275.867188 Z M 169 225.617188 " clip-rule="nonzero"/></clipPath></defs><g clip-path="url(#06878fc5ab)"><path fill="#000000" d="M 298.796875 152.226562 L 379.644531 317.207031 L 0.605469 317.207031 L 81.421875 152.226562 L 99.34375 152.226562 C 104.132812 160.082031 109.167969 167.691406 114.390625 174.835938 L 95.585938 174.835938 L 36.898438 294.601562 L 343.320312 294.601562 L 284.648438 174.835938 L 265.84375 174.835938 C 271.066406 167.742188 276.105469 160.132812 280.875 152.226562 Z M 173.144531 61.40625 L 229.882812 61.40625 C 237.179688 61.40625 245.511719 68.023438 248.824219 76.472656 L 259.515625 103.6875 C 259.792969 103.652344 260.066406 103.589844 260.363281 103.589844 L 268.574219 103.589844 C 273.214844 103.582031 276.988281 107.851562 276.988281 113.136719 C 276.988281 118.410156 273.214844 122.6875 268.574219 122.6875 L 266.511719 122.6875 C 266.511719 122.699219 266.519531 122.707031 266.519531 122.722656 C 267.640625 126.023438 268.265625 129.621094 268.265625 133.398438 L 268.265625 144.585938 C 268.265625 155.527344 265.589844 164.96875 259.546875 169.570312 L 259.546875 181.859375 C 259.546875 188.03125 255.128906 193.03125 249.699219 193.03125 L 240.664062 193.03125 C 235.234375 193.03125 230.816406 188.023438 230.816406 181.859375 L 230.816406 172.535156 L 150.769531 172.535156 L 150.769531 181.859375 C 150.769531 188.03125 146.355469 193.03125 140.917969 193.03125 L 131.878906 193.03125 C 126.445312 193.03125 122.027344 188.023438 122.027344 181.859375 L 122.027344 169.570312 C 115.992188 164.96875 113.320312 155.53125 113.320312 144.585938 L 113.320312 133.398438 C 113.320312 129.628906 113.9375 126.027344 115.046875 122.738281 C 115.046875 122.722656 115.058594 122.707031 115.058594 122.6875 L 112.992188 122.6875 C 108.34375 122.6875 104.578125 118.410156 104.578125 113.144531 C 104.578125 107.863281 108.34375 103.589844 112.992188 103.589844 L 121.199219 103.589844 C 121.496094 103.589844 121.773438 103.65625 122.054688 103.6875 L 132.742188 76.480469 C 136.121094 67.886719 144.261719 61.40625 151.683594 61.40625 Z M 134.917969 110.234375 C 134.917969 118.847656 248.234375 118.839844 248.234375 110.230469 C 248.234375 109.121094 248.023438 107.738281 248.007812 107.644531 C 246.003906 99.570312 238.289062 82.878906 238.289062 82.878906 C 236.421875 78.125 231.738281 74.441406 228.957031 74.441406 L 154.222656 74.441406 C 151.441406 74.441406 146.757812 78.125 144.886719 82.886719 C 144.886719 82.886719 138.105469 98.394531 135.15625 107.652344 C 135.128906 107.738281 134.917969 109.132812 134.917969 110.234375 Z M 156.917969 147.285156 C 156.917969 140.507812 151.402344 134.992188 144.597656 134.992188 C 137.804688 134.992188 132.285156 140.496094 132.285156 147.285156 C 132.285156 154.0625 137.800781 159.5625 144.597656 159.5625 C 151.402344 159.566406 156.917969 154.066406 156.917969 147.285156 Z M 252.359375 147.285156 C 252.359375 140.507812 246.851562 134.992188 240.046875 134.992188 C 233.25 134.992188 227.726562 140.496094 227.726562 147.285156 C 227.726562 154.0625 233.238281 159.5625 240.046875 159.5625 C 246.851562 159.5625 252.359375 154.066406 252.359375 147.285156 Z M 172.523438 144.203125 C 171.433594 144.203125 170.550781 145.089844 170.550781 146.179688 C 170.550781 147.269531 171.433594 148.152344 172.523438 148.152344 L 210.796875 148.152344 C 211.886719 148.152344 212.769531 147.269531 212.769531 146.179688 C 212.769531 145.089844 211.886719 144.203125 210.796875 144.203125 Z M 172.523438 153.417969 C 171.433594 153.417969 170.550781 154.300781 170.550781 155.390625 C 170.550781 156.484375 171.433594 157.367188 172.523438 157.367188 L 210.796875 157.367188 C 211.886719 157.367188 212.769531 156.484375 212.769531 155.390625 C 212.769531 154.300781 211.886719 153.417969 210.796875 153.417969 Z M 172.523438 153.417969 " fill-opacity="1" fill-rule="evenodd"/></g><g clip-path="url(#605d780cee)"><path fill="#000000" d="M 208.609375 237.84375 C 205.535156 230.566406 198.941406 225.992188 191.070312 225.617188 C 190.324219 225.617188 189.574219 225.617188 188.824219 225.617188 C 180.953125 225.992188 174.359375 230.566406 171.285156 237.84375 C 168.214844 245.117188 169.636719 253.292969 174.882812 259.140625 L 189.949219 275.867188 L 205.011719 259.140625 C 210.257812 253.292969 211.605469 245.117188 208.609375 237.84375 Z M 189.949219 261.617188 C 181.253906 261.617188 174.210938 254.566406 174.210938 245.867188 C 174.210938 237.167969 181.253906 230.117188 189.949219 230.117188 C 198.640625 230.117188 205.6875 237.167969 205.6875 245.867188 C 205.6875 254.566406 198.640625 261.617188 189.949219 261.617188 Z M 189.949219 233.117188 C 182.902344 233.117188 177.207031 238.816406 177.207031 245.867188 C 177.207031 252.917969 182.902344 258.617188 189.949219 258.617188 C 196.992188 258.617188 202.6875 252.917969 202.6875 245.867188 C 202.6875 238.816406 196.992188 233.117188 189.949219 233.117188 Z M 191.445312 248.867188 L 187.699219 248.867188 L 187.699219 251.867188 C 187.699219 252.691406 187.023438 253.367188 186.199219 253.367188 C 185.375 253.367188 184.703125 252.691406 184.703125 251.867188 L 184.703125 239.867188 C 184.703125 239.042969 185.375 238.367188 186.199219 238.367188 L 191.445312 238.367188 C 194.371094 238.367188 196.691406 240.691406 196.691406 243.617188 C 196.691406 246.542969 194.371094 248.867188 191.445312 248.867188 Z M 193.695312 243.617188 C 193.695312 244.816406 192.71875 245.867188 191.445312 245.867188 L 187.699219 245.867188 L 187.699219 241.367188 L 191.445312 241.367188 C 192.71875 241.367188 193.695312 242.34375 193.695312 243.617188 Z M 193.695312 243.617188 " fill-opacity="1" fill-rule="nonzero"/></g></svg>