<svg xmlns="http://www.w3.org/2000/svg" xmlns:xlink="http://www.w3.org/1999/xlink" width="500" zoomAndPan="magnify" viewBox="0 0 375 374.999991" height="500" preserveAspectRatio="xMidYMid meet" version="1.0"><defs><clipPath id="90f2c4ccc6"><path d="M 10 26.015625 L 155 26.015625 L 155 126 L 10 126 Z M 10 26.015625 " clip-rule="nonzero"/></clipPath></defs><path fill="#000000" d="M 225.355469 273.121094 C 218.144531 273.121094 205.464844 250.699219 169.558594 272.195312 C 168.15625 273.027344 166.394531 272.992188 165.042969 272.082031 C 150.796875 262.527344 125.003906 257.546875 115.375 271.125 C 114.019531 273.039062 111.367188 273.476562 109.46875 272.105469 C 99.835938 265.148438 78.914062 255.328125 68.671875 268.015625 C 68.363281 268.394531 67.996094 268.714844 67.574219 268.972656 C 51.003906 279.054688 31.464844 264.460938 38.492188 258.597656 C 40.273438 257.109375 42.925781 257.34375 44.414062 259.117188 C 45.230469 260.066406 52.382812 267.867188 62.625 262.101562 C 75.75 246.746094 97.878906 254.613281 111.144531 263.0625 C 124.847656 249.007812 151.109375 253.789062 167.46875 263.640625 C 188.96875 251.363281 206.054688 251.386719 225.253906 263.769531 C 242.585938 251.902344 263.152344 251.835938 280.121094 263.597656 C 317.742188 243.496094 318.707031 262.519531 339.640625 264.378906 C 350.894531 265.378906 353.066406 253.796875 358.511719 258.554688 C 364.730469 263.980469 349.660156 273.730469 338.902344 272.777344 C 313.648438 270.542969 318.386719 251.976562 281.828125 272.265625 C 280.363281 273.078125 278.550781 272.941406 277.21875 271.917969 C 262.203125 260.351562 243.304688 260.476562 227.902344 272.25 C 227.15625 272.832031 226.257812 273.121094 225.355469 273.121094 Z M 225.355469 273.121094 " fill-opacity="1" fill-rule="evenodd"/><path fill="#000000" d="M 225.355469 308.226562 C 218.160156 308.226562 205.394531 285.796875 169.558594 307.300781 C 168.15625 308.140625 166.394531 308.097656 165.042969 307.1875 C 150.789062 297.632812 125.003906 292.652344 115.375 306.230469 C 114.023438 308.136719 111.375 308.585938 109.472656 307.210938 C 99.839844 300.253906 78.917969 290.4375 68.675781 303.121094 C 68.367188 303.5 68 303.824219 67.582031 304.078125 C 50.921875 314.140625 31.492188 299.558594 38.5 293.703125 C 40.277344 292.214844 42.925781 292.453125 44.417969 294.222656 C 45.222656 295.160156 52.382812 302.980469 62.632812 297.210938 C 75.757812 281.851562 97.886719 289.726562 111.152344 298.167969 C 124.851562 284.109375 151.109375 288.890625 167.472656 298.746094 C 188.964844 286.472656 206.050781 286.492188 225.257812 298.875 C 242.589844 287 263.152344 286.933594 280.121094 298.707031 C 317.726562 278.609375 318.660156 297.59375 339.644531 299.484375 C 350.898438 300.503906 353.0625 288.890625 358.511719 293.65625 C 364.726562 299.085938 349.664062 308.839844 338.902344 307.882812 C 313.671875 305.644531 318.339844 287.078125 281.832031 307.371094 C 280.363281 308.1875 278.554688 308.046875 277.21875 307.023438 C 262.207031 295.457031 243.3125 295.582031 227.90625 307.355469 C 227.152344 307.9375 226.253906 308.226562 225.351562 308.226562 Z M 225.355469 308.226562 " fill-opacity="1" fill-rule="evenodd"/><path fill="#000000" d="M 225.355469 343.332031 C 218.234375 343.332031 205.382812 320.914062 169.558594 342.40625 C 168.15625 343.242188 166.394531 343.203125 165.042969 342.292969 C 150.796875 332.742188 125.003906 327.757812 115.375 341.339844 C 114.023438 343.246094 111.375 343.695312 109.472656 342.320312 C 99.839844 335.355469 78.914062 325.546875 68.675781 338.234375 C 68.371094 338.609375 68 338.933594 67.582031 339.1875 C 50.914062 349.257812 31.492188 334.664062 38.5 328.8125 C 40.277344 327.324219 42.925781 327.558594 44.417969 329.332031 C 45.222656 330.273438 52.382812 338.09375 62.632812 332.320312 C 75.757812 316.96875 97.882812 324.835938 111.152344 333.277344 C 124.847656 319.21875 151.113281 324.003906 167.472656 333.855469 C 188.976562 321.582031 206.058594 321.601562 225.257812 333.980469 C 242.582031 322.113281 263.15625 322.042969 280.121094 333.816406 C 317.738281 313.710938 318.683594 332.714844 339.644531 334.597656 C 350.898438 335.605469 353.0625 324.007812 358.511719 328.765625 C 364.726562 334.191406 349.667969 343.953125 338.902344 342.996094 C 313.636719 340.75 318.386719 322.191406 281.832031 342.476562 C 280.363281 343.292969 278.554688 343.15625 277.21875 342.128906 C 262.207031 330.566406 243.3125 330.6875 227.90625 342.460938 C 227.152344 343.042969 226.253906 343.335938 225.351562 343.335938 Z M 225.355469 343.332031 " fill-opacity="1" fill-rule="evenodd"/><path fill="#000000" d="M 247.9375 220.101562 C 246.679688 220.101562 245.441406 219.542969 244.605469 218.464844 L 224.59375 192.667969 L 86.347656 192.667969 C 85.140625 192.667969 83.992188 192.148438 83.195312 191.246094 L 41.832031 144.457031 C 39.453125 141.765625 41.335938 137.496094 44.929688 137.445312 L 69.734375 137.089844 C 71.070312 137.105469 72.304688 137.671875 73.117188 138.710938 L 96.117188 168.234375 L 214.242188 168.234375 C 215.542969 168.234375 216.773438 168.835938 217.570312 169.863281 L 251.261719 213.296875 C 253.433594 216.097656 251.339844 220.101562 247.9375 220.101562 Z M 88.25 184.234375 L 218.050781 184.234375 L 212.183594 176.664062 L 94.058594 176.664062 C 92.757812 176.664062 91.535156 176.0625 90.734375 175.042969 L 67.757812 145.550781 L 54.226562 145.746094 Z M 88.25 184.234375 " fill-opacity="1" fill-rule="evenodd"/><path fill="#000000" d="M 62.671875 220.097656 C 59.105469 220.097656 57.117188 215.863281 59.484375 213.121094 L 83.167969 185.695312 C 86.796875 181.492188 93.167969 187.011719 89.542969 191.207031 L 65.863281 218.636719 C 65.027344 219.605469 63.855469 220.097656 62.671875 220.097656 Z M 62.671875 220.097656 " fill-opacity="1" fill-rule="evenodd"/><path fill="#000000" d="M 251.046875 220.101562 L 41.878906 220.101562 C 36.332031 220.101562 36.332031 211.667969 41.878906 211.667969 L 251.046875 211.667969 C 256.59375 211.667969 256.597656 220.101562 251.046875 220.101562 Z M 251.046875 220.101562 " fill-opacity="1" fill-rule="evenodd"/><g clip-path="url(#90f2c4ccc6)"><path fill="#000000" d="M 17.773438 125.183594 C 13.789062 125.183594 13.441406 121.070312 12.523438 117.644531 C 0.121094 71.304688 35.273438 26.015625 82.667969 26.015625 C 115.589844 26.015625 144.527344 48.199219 153.027344 79.964844 C 153.847656 83.019531 156.082031 88.246094 151.226562 89.546875 L 17.773438 125.1875 Z M 82.671875 34.445312 C 41.085938 34.445312 9.675781 73.875 20.757812 115.796875 L 144.980469 82.484375 C 137.496094 54.160156 111.9375 34.445312 82.671875 34.445312 Z M 82.671875 34.445312 " fill-opacity="1" fill-rule="evenodd"/></g><path fill="#000000" d="M 53.261719 115.667969 C 51.886719 115.667969 50.539062 114.996094 49.734375 113.761719 C 28.402344 81.152344 61.195312 30.742188 61.527344 30.238281 C 62.699219 28.460938 65.011719 27.839844 66.921875 28.789062 C 67.464844 29.058594 121.015625 56.90625 118.867188 95.21875 C 118.554688 100.808594 110.144531 100.269531 110.453125 94.746094 C 112 67.148438 77.664062 44.738281 66.558594 38.242188 C 60.191406 49.425781 41.652344 86.019531 56.777344 109.140625 C 58.636719 111.980469 56.527344 115.664062 53.261719 115.664062 Z M 53.261719 115.667969 " fill-opacity="1" fill-rule="evenodd"/><path fill="#000000" d="M 102.492188 176.667969 C 100.632812 176.667969 98.929688 175.425781 98.425781 173.542969 L 79.890625 104.304688 C 78.453125 98.945312 86.597656 96.757812 88.03125 102.125 L 106.566406 171.359375 C 107.289062 174.046875 105.257812 176.667969 102.492188 176.667969 Z M 102.492188 176.667969 " fill-opacity="1" fill-rule="evenodd"/><path fill="#000000" d="M 224.648438 96.1875 C 213.496094 96.1875 204.425781 87.105469 204.425781 75.941406 C 204.425781 64.78125 213.5 55.703125 224.648438 55.703125 C 235.800781 55.703125 244.875 64.785156 244.875 75.941406 C 244.875 87.105469 235.800781 96.1875 224.648438 96.1875 Z M 224.648438 64.136719 C 209.125 64.136719 209.128906 87.753906 224.648438 87.753906 C 240.175781 87.753906 240.175781 64.136719 224.648438 64.136719 Z M 224.648438 64.136719 " fill-opacity="1" fill-rule="evenodd"/><path fill="#000000" d="M 224.648438 53.667969 C 218.910156 53.667969 220.433594 45.628906 220.433594 38.527344 C 220.433594 32.972656 228.863281 32.972656 228.863281 38.527344 C 228.863281 45.636719 230.386719 53.667969 224.648438 53.667969 Z M 224.648438 53.667969 " fill-opacity="1" fill-rule="evenodd"/><path fill="#000000" d="M 243.371094 61.429688 C 239.65625 61.429688 237.722656 56.898438 240.394531 54.226562 C 245.414062 49.203125 250.015625 42.441406 254.070312 46.5 C 258.132812 50.566406 251.363281 55.160156 246.347656 60.191406 C 245.527344 61.015625 244.449219 61.429688 243.371094 61.429688 Z M 243.371094 61.429688 " fill-opacity="1" fill-rule="evenodd"/><path fill="#000000" d="M 262.039062 80.164062 C 254.941406 80.164062 246.914062 81.6875 246.914062 75.945312 C 246.914062 70.203125 254.945312 71.726562 262.039062 71.726562 C 267.585938 71.726562 267.585938 80.164062 262.039062 80.164062 Z M 262.039062 80.164062 " fill-opacity="1" fill-rule="evenodd"/><path fill="#000000" d="M 251.085938 106.625 C 248.167969 106.625 243.707031 100.996094 240.382812 97.667969 C 236.460938 93.734375 242.421875 87.773438 246.347656 91.699219 C 251.363281 96.722656 258.128906 101.332031 254.066406 105.390625 C 253.25 106.210938 252.167969 106.625 251.089844 106.625 Z M 251.085938 106.625 " fill-opacity="1" fill-rule="evenodd"/><path fill="#000000" d="M 224.648438 117.585938 C 218.910156 117.585938 220.433594 109.546875 220.433594 102.441406 C 220.433594 96.890625 228.863281 96.890625 228.863281 102.441406 C 228.863281 109.554688 230.386719 117.585938 224.648438 117.585938 Z M 224.648438 117.585938 " fill-opacity="1" fill-rule="evenodd"/><path fill="#000000" d="M 198.214844 106.625 C 194.488281 106.625 192.570312 102.089844 195.230469 99.425781 C 200.25 94.402344 204.851562 87.632812 208.910156 91.699219 C 212.964844 95.761719 206.226562 100.359375 201.191406 105.390625 C 200.367188 106.210938 199.289062 106.625 198.214844 106.625 Z M 198.214844 106.625 " fill-opacity="1" fill-rule="evenodd"/><path fill="#000000" d="M 198.179688 80.164062 C 191.082031 80.164062 183.050781 81.6875 183.050781 75.945312 C 183.050781 70.203125 191.082031 71.726562 198.179688 71.726562 C 203.726562 71.726562 203.726562 80.164062 198.179688 80.164062 Z M 198.179688 80.164062 " fill-opacity="1" fill-rule="evenodd"/><path fill="#000000" d="M 205.933594 61.429688 C 203.011719 61.429688 198.570312 55.804688 195.230469 52.46875 C 191.304688 48.542969 197.269531 42.578125 201.191406 46.503906 C 206.214844 51.539062 212.972656 56.128906 208.910156 60.191406 C 208.085938 61.015625 207.007812 61.429688 205.933594 61.429688 Z M 205.933594 61.429688 " fill-opacity="1" fill-rule="evenodd"/><path fill="#000000" d="M 356.488281 220.101562 L 251.046875 220.101562 C 245.5 220.101562 245.503906 211.667969 251.046875 211.667969 L 356.488281 211.667969 C 362.03125 211.667969 362.03125 220.101562 356.488281 220.101562 Z M 356.488281 220.101562 " fill-opacity="1" fill-rule="evenodd"/><path fill="#000000" d="M 283.871094 255.082031 C 281.546875 255.082031 279.660156 253.191406 279.660156 250.863281 L 279.660156 158.480469 C 279.660156 147.570312 288.523438 138.703125 299.421875 138.703125 C 317.664062 138.703125 324.496094 162.699219 314.976562 162.699219 C 312.652344 162.699219 310.761719 160.808594 310.761719 158.480469 C 310.761719 143.542969 288.09375 143.546875 288.09375 158.480469 L 288.09375 250.863281 C 288.085938 253.191406 286.195312 255.082031 283.871094 255.082031 Z M 283.871094 255.082031 " fill-opacity="1" fill-rule="evenodd"/><path fill="#000000" d="M 334.273438 255.082031 C 331.945312 255.082031 330.058594 253.191406 330.058594 250.863281 L 330.058594 158.480469 C 330.058594 147.570312 338.925781 138.703125 349.824219 138.703125 C 368.0625 138.703125 374.898438 162.699219 365.371094 162.699219 C 363.050781 162.699219 361.160156 160.808594 361.160156 158.480469 C 361.160156 143.546875 338.492188 143.542969 338.492188 158.480469 L 338.492188 250.863281 C 338.484375 253.191406 336.597656 255.082031 334.269531 255.082031 Z M 334.273438 255.082031 " fill-opacity="1" fill-rule="evenodd"/><path fill="#000000" d="M 334.273438 181.457031 L 283.871094 181.457031 C 278.324219 181.457031 278.324219 173.023438 283.871094 173.023438 L 334.273438 173.023438 C 339.820312 173.023438 339.820312 181.457031 334.273438 181.457031 Z M 334.273438 181.457031 " fill-opacity="1" fill-rule="evenodd"/><path fill="#000000" d="M 334.273438 200.777344 L 283.871094 200.777344 C 278.324219 200.777344 278.324219 192.34375 283.871094 192.34375 L 334.273438 192.34375 C 339.820312 192.34375 339.820312 200.777344 334.273438 200.777344 Z M 334.273438 200.777344 " fill-opacity="1" fill-rule="evenodd"/><path fill="#000000" d="M 334.273438 220.101562 L 283.871094 220.101562 C 278.324219 220.101562 278.324219 211.667969 283.871094 211.667969 L 334.273438 211.667969 C 339.820312 211.667969 339.820312 220.101562 334.273438 220.101562 Z M 334.273438 220.101562 " fill-opacity="1" fill-rule="evenodd"/><path fill="#000000" d="M 334.273438 239.414062 L 283.871094 239.414062 C 278.324219 239.414062 278.324219 230.980469 283.871094 230.980469 L 334.273438 230.980469 C 339.820312 230.980469 339.820312 239.414062 334.273438 239.414062 Z M 334.273438 239.414062 " fill-opacity="1" fill-rule="evenodd"/></svg>