<svg xmlns="http://www.w3.org/2000/svg" xmlns:xlink="http://www.w3.org/1999/xlink" width="500" zoomAndPan="magnify" viewBox="0 0 375 374.999991" height="500" preserveAspectRatio="xMidYMid meet" version="1.0"><defs><clipPath id="dc3e8ad463"><path d="M 225 20.625 L 375 20.625 L 375 171 L 225 171 Z M 225 20.625 " clip-rule="nonzero"/></clipPath></defs><g clip-path="url(#dc3e8ad463)"><path fill="#010000" d="M 370.90625 71.710938 L 297.613281 140.519531 C 295.328125 142.800781 291.632812 142.800781 289.351562 140.519531 C 287.074219 138.242188 287.066406 134.539062 289.351562 132.265625 L 358.167969 58.96875 L 353.988281 54.789062 L 280.699219 123.605469 C 278.417969 125.882812 274.714844 125.882812 272.4375 123.605469 C 270.15625 121.324219 270.15625 117.617188 272.4375 115.339844 L 341.246094 42.050781 L 337.074219 37.875 L 263.78125 106.683594 C 261.5 108.96875 257.800781 108.96875 255.519531 106.683594 C 253.242188 104.410156 253.242188 100.707031 255.519531 98.433594 L 324.335938 25.132812 L 320.179688 20.984375 L 233.363281 107.808594 C 222.800781 118.371094 222.800781 135.488281 233.363281 146.050781 L 249.988281 162.675781 C 260.546875 173.230469 277.6875 173.230469 288.242188 162.675781 L 375.058594 75.863281 L 370.90625 71.710938 " fill-opacity="1" fill-rule="nonzero"/></g><path fill="#010000" d="M 235.21875 147.914062 L 50.429688 315.917969 C 42.230469 324.121094 42.230469 337.40625 50.429688 345.597656 C 58.632812 353.808594 71.921875 353.808594 80.121094 345.597656 L 248.128906 160.824219 L 235.21875 147.914062 " fill-opacity="1" fill-rule="nonzero"/><path fill="#010000" d="M 118.78125 160.824219 L 286.785156 345.597656 C 294.980469 353.808594 308.28125 353.808594 316.476562 345.597656 C 324.675781 337.40625 324.675781 324.121094 316.476562 315.917969 L 131.691406 147.914062 L 118.78125 160.824219 " fill-opacity="1" fill-rule="nonzero"/><path fill="#010000" d="M 114.464844 73.804688 C 81.175781 40.511719 38.5625 29.140625 19.292969 48.425781 C 0.0195312 67.703125 11.378906 110.304688 44.671875 143.597656 C 77.960938 176.882812 120.574219 188.246094 139.847656 168.984375 C 159.117188 149.703125 147.753906 107.09375 114.464844 73.804688 " fill-opacity="1" fill-rule="nonzero"/></svg>