<svg xmlns="http://www.w3.org/2000/svg" xmlns:xlink="http://www.w3.org/1999/xlink" width="500" zoomAndPan="magnify" viewBox="0 0 375 374.999991" height="500" preserveAspectRatio="xMidYMid meet" version="1.0"><path fill="#040606" d="M 356.25 150 L 43.75 150 C 40.308594 150 37.5 147.191406 37.5 143.75 C 37.5 140.308594 40.308594 137.5 43.75 137.5 L 356.25 137.5 C 359.691406 137.5 362.5 140.308594 362.5 143.75 C 362.5 147.191406 359.691406 150 356.25 150 Z M 193.847656 192.722656 C 190.964844 209.839844 186.839844 221.117188 183.691406 227.855469 L 176.609375 234.082031 C 171.019531 238.914062 161.863281 238.304688 156.980469 232.714844 C 154.394531 229.734375 153.199219 225.757812 153.757812 221.898438 C 155.394531 210.351562 156.25 200.902344 156.25 193.75 C 156.25 184.59375 154.859375 175.730469 153.6875 169.898438 C 153.171875 167.285156 152.171875 164.792969 150.855469 162.5 L 207.445312 162.5 C 200.367188 171.386719 195.679688 181.617188 193.847656 192.722656 Z M 224.632812 162.5 L 238.035156 162.5 C 230.25 171.777344 224.535156 183.933594 221.191406 192.285156 C 220.117188 195.019531 218.40625 197.4375 216.136719 199.414062 L 202.585938 211.277344 C 203.953125 206.078125 205.175781 200.660156 206.152344 194.773438 C 208.277344 182.226562 214.5 171.386719 224.632812 162.5 Z M 251.683594 213.71875 C 250.757812 218.578125 248.167969 222.777344 244.335938 225.511719 C 230.808594 235.300781 209.789062 252.585938 186.277344 279.394531 C 184.667969 281.226562 182.761719 282.714844 180.664062 283.789062 C 172.632812 287.769531 152.441406 299.292969 130.710938 321.875 L 94.628906 285.789062 C 95.75 278.660156 98.558594 266.820312 105.589844 252.808594 C 107.519531 248.972656 109.277344 245.554688 110.886719 242.457031 C 119.996094 225.046875 125 215.429688 125 187.5 L 125 166.675781 C 125 164.378906 126.878906 162.5 129.175781 162.5 C 132.078125 162.5 134.839844 163.476562 137.132812 165.308594 C 139.378906 167.113281 140.867188 169.554688 141.429688 172.363281 C 142.480469 177.636719 143.75 185.621094 143.75 193.75 C 143.75 200.195312 142.917969 209.324219 141.382812 220.117188 C 140.332031 227.613281 142.578125 235.203125 147.558594 240.917969 C 152.5625 246.679688 159.8125 250 167.429688 250 C 173.804688 250 179.957031 247.703125 184.8125 243.503906 L 224.363281 208.8125 C 228.125 205.542969 231.054688 201.390625 232.789062 196.898438 C 240.183594 178.5625 249.292969 165.820312 257.347656 162.5 L 273.144531 162.5 C 265.746094 172.191406 256.421875 188.671875 251.683594 213.71875 Z M 128.929688 347.582031 L 112.011719 361.132812 C 110.914062 362.011719 109.546875 362.5 108.105469 362.5 L 18.75 362.5 C 15.308594 362.5 12.5 359.691406 12.5 356.25 L 12.5 334.277344 C 12.5 331.761719 13.988281 329.515625 16.285156 328.539062 C 26 324.4375 43.285156 314.109375 70.507812 288.109375 C 71.753906 286.9375 73.339844 286.351562 74.925781 286.351562 C 76.515625 286.351562 78.101562 286.960938 79.320312 288.132812 L 129.46875 338.28125 C 130.738281 339.574219 131.371094 341.257812 131.273438 343.066406 C 131.175781 344.847656 130.347656 346.460938 128.929688 347.582031 Z M 176.050781 37.5 L 223.949219 37.5 C 284.007812 37.5 333.179688 76.21875 337.109375 125 L 62.890625 125 C 66.820312 76.21875 115.992188 37.5 176.050781 37.5 Z M 193.75 18.75 C 193.75 15.308594 196.558594 12.5 200 12.5 C 203.441406 12.5 206.25 15.308594 206.25 18.75 C 206.25 22.191406 203.441406 25 200 25 C 196.558594 25 193.75 22.191406 193.75 18.75 Z M 356.25 125 L 349.632812 125 C 345.75 69.335938 290.941406 25 223.949219 25 L 217.601562 25 C 218.285156 23.023438 218.75 20.945312 218.75 18.75 C 218.75 8.398438 210.351562 0 200 0 C 189.648438 0 181.25 8.398438 181.25 18.75 C 181.25 20.945312 181.714844 23.023438 182.398438 25 L 176.050781 25 C 109.058594 25 54.246094 69.335938 50.390625 125 L 43.75 125 C 33.398438 125 25 133.398438 25 143.75 C 25 154.101562 33.398438 162.5 43.75 162.5 L 113.085938 162.5 C 112.742188 163.84375 112.5 165.234375 112.5 166.675781 L 112.5 187.5 C 112.5 212.378906 108.519531 219.996094 99.804688 236.667969 C 98.167969 239.84375 96.363281 243.285156 94.410156 247.191406 C 88.792969 258.398438 85.59375 268.457031 83.789062 276.171875 C 76.804688 272.460938 67.894531 273.339844 61.890625 279.078125 C 34.644531 305.054688 18.578125 313.988281 11.425781 317.039062 C 4.492188 319.945312 0 326.707031 0 334.277344 L 0 356.25 C 0 366.601562 8.398438 375 18.75 375 L 108.105469 375 C 112.351562 375 116.527344 373.535156 119.824219 370.898438 L 136.742188 357.347656 C 140.894531 354.027344 143.457031 349.070312 143.75 343.75 C 144.019531 339.039062 142.382812 334.449219 139.402344 330.859375 C 159.886719 309.472656 178.757812 298.679688 186.230469 294.96875 C 189.820312 293.164062 193.015625 290.699219 195.703125 287.621094 C 218.40625 261.71875 238.671875 245.042969 251.636719 235.644531 C 258.054688 231.054688 262.425781 224.097656 263.941406 216.039062 C 270.238281 182.933594 285.230469 166.796875 289.84375 162.5 L 356.25 162.5 C 366.601562 162.5 375 154.101562 375 143.75 C 375 133.398438 366.601562 125 356.25 125 " fill-opacity="1" fill-rule="nonzero"/><path fill="#040606" d="M 174.949219 50 C 133.472656 50.367188 96.949219 70.652344 81.882812 101.734375 C 80.371094 104.832031 81.664062 108.570312 84.765625 110.082031 C 85.644531 110.496094 86.570312 110.71875 87.5 110.71875 C 89.820312 110.71875 92.039062 109.421875 93.113281 107.203125 C 105.933594 80.761719 138.867188 62.816406 175.046875 62.5 C 178.492188 62.476562 181.273438 59.644531 181.25 56.199219 C 181.226562 52.757812 178.222656 49.925781 174.949219 50 " fill-opacity="1" fill-rule="nonzero"/></svg>