<svg xmlns="http://www.w3.org/2000/svg" xmlns:xlink="http://www.w3.org/1999/xlink" width="500" zoomAndPan="magnify" viewBox="0 0 375 374.999991" height="500" preserveAspectRatio="xMidYMid meet" version="1.0"><defs><clipPath id="412a51a323"><path d="M 53.671875 0 L 321.421875 0 L 321.421875 375 L 53.671875 375 Z M 53.671875 0 " clip-rule="nonzero"/></clipPath></defs><g clip-path="url(#412a51a323)"><path fill="#000000" d="M 65.175781 67.382812 L 57.984375 58.042969 L 69.464844 56.027344 L 70.113281 55.914062 L 70.671875 55.828125 L 71.746094 55.671875 C 72.457031 55.582031 73.15625 55.496094 73.851562 55.425781 C 75.246094 55.277344 76.628906 55.164062 78.007812 55.074219 C 80.769531 54.914062 83.527344 54.859375 86.273438 54.910156 C 89.023438 54.976562 91.769531 55.125 94.515625 55.40625 C 97.257812 55.6875 99.988281 56.0625 102.699219 56.574219 C 103.375 56.707031 104.054688 56.828125 104.730469 56.976562 C 105.402344 57.125 106.082031 57.257812 106.757812 57.421875 C 107.429688 57.582031 108.101562 57.734375 108.773438 57.914062 C 109.441406 58.09375 110.109375 58.253906 110.777344 58.449219 C 113.445312 59.191406 116.082031 60.070312 118.667969 61.070312 C 123.875 63.082031 128.808594 65.621094 133.472656 68.6875 C 134.066406 69.078125 134.648438 69.476562 135.226562 69.886719 C 135.359375 69.265625 135.507812 68.652344 135.671875 68.035156 C 135.71875 67.863281 135.765625 67.675781 135.8125 67.519531 L 135.953125 67.035156 L 136.230469 66.074219 L 136.511719 65.109375 L 136.8125 64.144531 C 137.015625 63.503906 137.210938 62.859375 137.441406 62.21875 L 137.769531 61.25 L 137.9375 60.769531 L 138.117188 60.285156 L 138.488281 59.320312 C 138.609375 59.003906 138.730469 58.679688 138.867188 58.359375 L 139.265625 57.394531 C 139.40625 57.078125 139.53125 56.753906 139.683594 56.4375 C 140.832031 53.847656 142.164062 51.359375 143.679688 48.96875 C 145.199219 46.601562 146.8125 44.394531 148.332031 42.378906 L 149.449219 40.875 C 149.820312 40.375 150.171875 39.886719 150.53125 39.394531 L 151.578125 37.933594 C 151.914062 37.445312 152.261719 36.960938 152.589844 36.472656 C 153.910156 34.519531 155.15625 32.53125 156.339844 30.484375 C 157.523438 28.433594 158.644531 26.324219 159.722656 24.175781 L 160.523438 22.554688 C 160.792969 22.015625 161.046875 21.464844 161.308594 20.917969 C 161.835938 19.832031 162.332031 18.714844 162.84375 17.609375 C 163.355469 16.5 163.832031 15.375 164.328125 14.257812 L 165.765625 10.859375 L 170.324219 0.00390625 L 177.726562 9 L 178.148438 9.507812 L 178.496094 9.945312 L 179.160156 10.808594 C 179.585938 11.378906 180.007812 11.945312 180.417969 12.515625 C 181.230469 13.65625 182.011719 14.800781 182.765625 15.957031 C 184.269531 18.285156 185.671875 20.65625 186.980469 23.070312 C 188.277344 25.496094 189.492188 27.957031 190.609375 30.480469 C 191.730469 33.003906 192.734375 35.5625 193.625 38.175781 C 193.847656 38.832031 194.070312 39.480469 194.273438 40.144531 C 194.480469 40.804688 194.695312 41.457031 194.886719 42.121094 C 195.078125 42.785156 195.277344 43.445312 195.445312 44.121094 C 195.613281 44.792969 195.808594 45.453125 195.960938 46.128906 C 196.628906 48.816406 197.167969 51.535156 197.570312 54.285156 C 198.378906 59.804688 198.601562 65.347656 198.234375 70.914062 C 198.035156 73.683594 197.683594 76.4375 197.179688 79.167969 L 196.769531 81.203125 L 196.292969 83.222656 L 196.175781 83.726562 L 196.035156 84.226562 L 195.757812 85.226562 L 195.476562 86.21875 C 195.378906 86.550781 195.273438 86.878906 195.167969 87.207031 C 194.355469 89.828125 193.386719 92.394531 192.261719 94.898438 C 191.15625 97.382812 189.910156 99.796875 188.527344 102.140625 L 187.472656 103.871094 C 187.304688 104.160156 187.117188 104.441406 186.929688 104.722656 L 186.371094 105.558594 C 185.640625 106.6875 184.84375 107.765625 184.058594 108.851562 C 183.863281 109.128906 183.65625 109.386719 183.449219 109.648438 L 182.835938 110.4375 L 182.214844 111.222656 L 181.902344 111.613281 L 181.582031 111.992188 C 180.71875 113.007812 179.871094 114.027344 178.957031 114.992188 C 175.398438 118.875 171.496094 122.382812 167.257812 125.511719 C 170.328125 121.296875 173.21875 117.035156 175.75 112.628906 C 176.40625 111.546875 176.980469 110.414062 177.589844 109.3125 L 177.816406 108.894531 L 178.449219 107.628906 L 178.867188 106.789062 C 179.007812 106.511719 179.148438 106.230469 179.289062 105.953125 C 179.804688 104.8125 180.363281 103.695312 180.824219 102.539062 L 181.1875 101.683594 C 181.3125 101.402344 181.4375 101.113281 181.546875 100.824219 L 182.21875 99.09375 C 183.074219 96.773438 183.867188 94.449219 184.488281 92.089844 L 184.730469 91.207031 L 184.945312 90.320312 L 185.164062 89.4375 C 185.234375 89.140625 185.3125 88.847656 185.367188 88.550781 L 185.734375 86.769531 C 185.800781 86.476562 185.847656 86.175781 185.898438 85.878906 L 186.054688 84.984375 C 186.851562 80.246094 187.171875 75.476562 187.015625 70.671875 C 186.925781 68.289062 186.730469 65.917969 186.417969 63.550781 C 186.121094 61.191406 185.699219 58.84375 185.1875 56.519531 C 184.675781 54.195312 184.039062 51.890625 183.332031 49.605469 C 182.976562 48.464844 182.59375 47.332031 182.195312 46.207031 C 182.003906 45.648438 181.789062 45.082031 181.578125 44.515625 C 181.371094 43.953125 181.152344 43.402344 180.933594 42.84375 C 180.035156 40.617188 179.082031 38.414062 178.03125 36.25 C 176.980469 34.085938 175.867188 31.953125 174.671875 29.867188 C 174.304688 29.214844 173.929688 28.570312 173.546875 27.929688 C 173.394531 28.238281 173.242188 28.542969 173.082031 28.851562 L 172.152344 30.617188 C 171.847656 31.207031 171.515625 31.789062 171.191406 32.378906 C 170.867188 32.964844 170.550781 33.550781 170.214844 34.132812 C 169.875 34.710938 169.542969 35.296875 169.195312 35.875 L 168.132812 37.601562 C 166.691406 39.890625 165.152344 42.148438 163.511719 44.3125 C 163.105469 44.859375 162.6875 45.386719 162.277344 45.921875 C 161.867188 46.457031 161.4375 46.976562 161.019531 47.492188 C 160.601562 48.007812 160.183594 48.515625 159.761719 49.007812 L 158.519531 50.484375 C 156.871094 52.441406 155.347656 54.210938 153.992188 56.027344 C 153.328125 56.9375 152.667969 57.84375 152.066406 58.789062 C 151.917969 59.023438 151.757812 59.257812 151.613281 59.496094 L 151.175781 60.21875 C 150.878906 60.695312 150.609375 61.195312 150.320312 61.691406 C 149.191406 63.734375 148.167969 65.832031 147.25 67.984375 L 146.902344 68.820312 L 146.5625 69.65625 L 146.222656 70.496094 L 146.050781 70.914062 C 145.992188 71.054688 145.949219 71.171875 145.898438 71.304688 C 145.496094 72.320312 145.148438 73.359375 144.851562 74.414062 C 144.574219 75.367188 144.34375 76.34375 144.152344 77.335938 L 144.710938 77.894531 L 145.441406 78.628906 C 145.679688 78.878906 145.914062 79.132812 146.148438 79.382812 C 148.03125 81.382812 149.789062 83.488281 151.414062 85.699219 C 153.035156 87.886719 154.523438 90.160156 155.882812 92.515625 L 156.875 94.285156 C 157.042969 94.574219 157.191406 94.875 157.347656 95.175781 L 157.804688 96.078125 C 158.429688 97.265625 158.976562 98.496094 159.53125 99.707031 C 159.667969 100.011719 159.800781 100.320312 159.925781 100.628906 L 160.308594 101.554688 L 160.6875 102.480469 L 160.875 102.945312 L 161.046875 103.410156 C 161.503906 104.667969 161.976562 105.902344 162.367188 107.171875 C 163.992188 112.179688 165.125 117.300781 165.761719 122.527344 C 163.605469 117.78125 161.316406 113.175781 158.730469 108.796875 C 158.109375 107.691406 157.40625 106.632812 156.75 105.5625 L 156.496094 105.160156 L 156.234375 104.769531 L 155.707031 103.984375 L 155.183594 103.203125 C 155.011719 102.941406 154.839844 102.683594 154.652344 102.429688 C 153.914062 101.414062 153.21875 100.382812 152.441406 99.40625 L 151.875 98.667969 C 151.683594 98.421875 151.5 98.171875 151.300781 97.9375 L 150.125 96.5 C 148.527344 94.613281 146.894531 92.777344 145.148438 91.074219 L 144.5 90.429688 L 143.832031 89.804688 L 143.535156 89.527344 L 143.167969 89.183594 C 142.945312 88.976562 142.730469 88.765625 142.496094 88.570312 L 141.128906 87.371094 C 140.90625 87.167969 140.667969 86.984375 140.429688 86.789062 L 139.734375 86.214844 C 138.007812 84.808594 136.222656 83.492188 134.382812 82.273438 C 132.234375 80.835938 130.019531 79.519531 127.734375 78.316406 C 125.621094 77.21875 123.457031 76.222656 121.246094 75.328125 C 119.042969 74.425781 116.792969 73.640625 114.515625 72.9375 C 112.238281 72.238281 109.917969 71.65625 107.585938 71.148438 C 106.417969 70.894531 105.246094 70.667969 104.066406 70.460938 C 103.476562 70.347656 102.882812 70.261719 102.292969 70.167969 C 101.703125 70.074219 101.109375 69.988281 100.515625 69.90625 C 98.140625 69.589844 95.75 69.332031 93.347656 69.183594 C 90.945312 69.035156 88.539062 68.960938 86.132812 68.960938 C 85.386719 68.960938 84.640625 68.96875 83.898438 68.984375 C 84.089844 69.265625 84.285156 69.554688 84.472656 69.84375 L 85.554688 71.519531 C 85.917969 72.078125 86.261719 72.652344 86.613281 73.21875 C 86.964844 73.789062 87.3125 74.355469 87.652344 74.941406 C 87.996094 75.527344 88.335938 76.097656 88.671875 76.683594 L 89.648438 78.460938 C 90.929688 80.84375 92.140625 83.292969 93.214844 85.785156 C 93.496094 86.40625 93.746094 87.03125 94.011719 87.652344 C 94.273438 88.273438 94.515625 88.894531 94.757812 89.515625 C 95 90.136719 95.238281 90.753906 95.457031 91.359375 L 96.128906 93.175781 C 97.015625 95.566406 97.8125 97.769531 98.726562 99.84375 C 99.195312 100.871094 99.652344 101.890625 100.183594 102.878906 C 100.3125 103.125 100.4375 103.375 100.574219 103.621094 L 100.992188 104.355469 C 101.261719 104.851562 101.566406 105.335938 101.855469 105.824219 C 103.082031 107.8125 104.402344 109.734375 105.824219 111.589844 L 106.363281 112.304688 L 106.921875 113.011719 L 107.757812 114.078125 C 107.855469 114.199219 107.933594 114.292969 108.023438 114.398438 C 109.421875 116.113281 110.96875 117.679688 112.664062 119.101562 C 113.082031 119.46875 113.535156 119.8125 113.976562 120.164062 L 114.65625 120.675781 C 114.882812 120.847656 115.117188 121.007812 115.355469 121.175781 C 115.589844 121.339844 115.820312 121.503906 116.054688 121.660156 C 116.285156 121.820312 116.527344 121.984375 116.769531 122.140625 L 117.496094 122.605469 L 118.238281 123.058594 C 119.238281 123.648438 120.261719 124.210938 121.3125 124.753906 C 123.445312 125.828125 125.632812 126.777344 127.875 127.601562 C 132.410156 129.277344 137.207031 130.523438 142.121094 131.445312 C 144.578125 131.90625 147.066406 132.300781 149.578125 132.597656 C 152.089844 132.894531 154.621094 133.140625 157.183594 133.277344 C 155.941406 133.617188 154.683594 133.882812 153.410156 134.121094 C 152.140625 134.359375 150.867188 134.554688 149.585938 134.734375 C 147.023438 135.066406 144.4375 135.292969 141.832031 135.386719 C 139.210938 135.480469 136.59375 135.441406 133.976562 135.273438 C 131.324219 135.101562 128.691406 134.785156 126.074219 134.3125 C 120.816406 133.359375 115.546875 131.742188 110.5625 129.164062 C 109.316406 128.523438 108.089844 127.820312 106.894531 127.050781 C 105.699219 126.277344 104.53125 125.457031 103.402344 124.566406 C 102.265625 123.667969 101.179688 122.710938 100.148438 121.699219 C 100.019531 121.574219 99.878906 121.441406 99.761719 121.324219 L 99.410156 120.96875 L 98.710938 120.257812 L 98.011719 119.539062 L 97.324219 118.800781 C 96.863281 118.308594 96.398438 117.824219 95.953125 117.308594 L 95.273438 116.542969 L 94.9375 116.160156 L 94.605469 115.765625 L 93.949219 114.96875 C 93.726562 114.707031 93.507812 114.441406 93.296875 114.167969 L 92.65625 113.34375 C 92.441406 113.066406 92.230469 112.796875 92.023438 112.507812 C 90.335938 110.234375 88.824219 107.847656 87.488281 105.351562 C 86.175781 102.863281 85.050781 100.371094 84.042969 98.0625 L 83.285156 96.34375 C 83.03125 95.773438 82.78125 95.226562 82.53125 94.667969 L 81.773438 93.035156 C 81.515625 92.503906 81.261719 91.964844 80.996094 91.4375 C 79.945312 89.324219 78.832031 87.261719 77.628906 85.226562 C 76.425781 83.1875 75.144531 81.175781 73.804688 79.175781 L 72.789062 77.683594 C 72.449219 77.183594 72.089844 76.6875 71.75 76.191406 C 71.066406 75.199219 70.335938 74.214844 69.621094 73.230469 C 68.90625 72.246094 68.160156 71.277344 67.429688 70.289062 Z M 215.058594 114.261719 C 219.136719 107.207031 223.070312 100.050781 226.78125 92.761719 C 227.242188 91.851562 227.71875 90.945312 228.164062 90.027344 L 229.519531 87.269531 C 229.972656 86.355469 230.410156 85.429688 230.847656 84.503906 L 232.15625 81.726562 L 233.421875 78.921875 L 234.054688 77.527344 C 234.265625 77.0625 234.457031 76.582031 234.664062 76.113281 L 235.871094 73.28125 C 236.265625 72.332031 236.640625 71.371094 237.023438 70.417969 L 237.589844 68.988281 C 237.78125 68.507812 237.953125 68.019531 238.132812 67.539062 L 239.203125 64.636719 C 239.859375 62.675781 240.546875 60.730469 241.109375 58.734375 L 241.550781 57.242188 C 241.6875 56.75 241.8125 56.285156 241.945312 55.800781 L 242.722656 52.925781 L 244.257812 47.132812 C 246.3125 39.378906 248.351562 31.496094 250.367188 23.398438 C 247.265625 30.648438 244.179688 38.117188 241.117188 45.71875 C 240.347656 47.617188 239.578125 49.523438 238.816406 51.441406 L 237.671875 54.320312 C 237.480469 54.796875 237.292969 55.296875 237.101562 55.753906 L 236.527344 57.125 C 235.785156 58.957031 234.933594 60.757812 234.117188 62.570312 L 232.808594 65.257812 C 232.589844 65.703125 232.382812 66.152344 232.152344 66.597656 L 231.464844 67.925781 C 231.003906 68.808594 230.558594 69.703125 230.09375 70.578125 L 228.671875 73.21875 C 228.203125 74.097656 227.710938 74.96875 227.222656 75.84375 L 225.761719 78.453125 L 224.257812 81.050781 C 223.757812 81.921875 223.261719 82.789062 222.742188 83.648438 C 221.71875 85.371094 220.699219 87.09375 219.652344 88.804688 L 218.09375 91.363281 L 216.503906 93.921875 C 215.453125 95.628906 214.367188 97.320312 213.289062 99.015625 C 212.214844 100.714844 211.121094 102.398438 210.039062 104.089844 L 206.746094 109.136719 C 202.320312 115.851562 197.824219 122.519531 193.253906 129.144531 C 192.117188 130.804688 190.960938 132.453125 189.816406 134.109375 L 186.359375 139.058594 L 182.882812 143.992188 L 179.390625 148.917969 C 174.714844 155.46875 169.992188 161.984375 165.230469 168.464844 L 163.4375 170.878906 L 162.769531 171.78125 L 162.539062 172.097656 L 161.621094 173.367188 C 160.398438 175.058594 159.152344 176.734375 158 178.480469 L 156.246094 181.074219 C 155.949219 181.507812 155.671875 181.949219 155.394531 182.394531 L 154.554688 183.71875 L 152.878906 186.375 L 151.285156 189.078125 C 147.066406 196.316406 143.308594 203.851562 140.234375 211.679688 C 139.792969 212.847656 139.335938 214.011719 138.898438 215.183594 C 138.898438 214.246094 138.898438 213.3125 138.839844 212.375 L 138.792969 211.195312 C 138.773438 210.804688 138.757812 210.410156 138.71875 210.015625 C 138.65625 209.230469 138.578125 208.449219 138.507812 207.660156 C 138.183594 204.503906 137.648438 201.378906 136.90625 198.292969 C 136.167969 195.183594 135.246094 192.128906 134.148438 189.125 C 131.945312 183.066406 129.070312 177.34375 125.535156 171.953125 C 121.980469 166.589844 117.894531 161.667969 113.277344 157.1875 C 108.691406 152.765625 103.730469 148.8125 98.394531 145.332031 C 95.757812 143.597656 93.046875 141.992188 90.292969 140.488281 C 87.539062 138.980469 84.707031 137.613281 81.855469 136.328125 C 79.003906 135.046875 76.089844 133.882812 73.132812 132.824219 C 71.652344 132.292969 70.160156 131.796875 68.648438 131.324219 C 67.894531 131.089844 67.128906 130.863281 66.359375 130.644531 L 65.179688 130.324219 L 64.574219 130.164062 L 63.886719 129.996094 L 53.730469 127.515625 L 56.335938 137.429688 C 57.789062 142.957031 59.046875 148.503906 60.039062 154.042969 C 60.527344 156.816406 60.960938 159.585938 61.269531 162.355469 C 61.578125 165.121094 61.785156 167.886719 61.890625 170.671875 C 62 173.457031 61.976562 176.265625 61.933594 179.1875 C 61.890625 182.109375 61.867188 185.167969 62.039062 188.285156 C 62.226562 191.414062 62.632812 194.515625 63.261719 197.585938 C 63.894531 200.589844 64.683594 203.550781 65.636719 206.464844 L 65.984375 207.546875 L 66.351562 208.617188 L 66.726562 209.683594 L 66.914062 210.214844 C 66.972656 210.390625 67.054688 210.582031 67.117188 210.773438 C 67.667969 212.257812 68.296875 213.710938 69 215.128906 C 69.6875 216.539062 70.449219 217.910156 71.277344 219.242188 C 72.09375 220.574219 72.976562 221.855469 73.910156 223.089844 C 75.761719 225.546875 77.792969 227.84375 80.003906 229.984375 C 82.183594 232.085938 84.488281 234.046875 86.914062 235.855469 C 91.734375 239.457031 96.898438 242.472656 102.238281 245.015625 C 104.910156 246.289062 107.625 247.441406 110.382812 248.476562 C 111.761719 248.992188 113.152344 249.476562 114.546875 249.933594 C 115.945312 250.386719 117.351562 250.8125 118.773438 251.167969 C 116.082031 250.015625 113.464844 248.726562 110.898438 247.34375 C 108.332031 245.957031 105.828125 244.496094 103.382812 242.945312 C 100.941406 241.390625 98.570312 239.75 96.285156 238.003906 C 94.003906 236.277344 91.816406 234.4375 89.722656 232.492188 C 85.558594 228.625 81.859375 224.324219 78.992188 219.625 C 78.816406 219.328125 78.628906 219.039062 78.460938 218.742188 L 77.953125 217.847656 C 77.632812 217.242188 77.304688 216.644531 77.007812 216.03125 C 76.394531 214.820312 75.847656 213.582031 75.363281 212.316406 C 74.878906 211.066406 74.460938 209.789062 74.105469 208.496094 C 74.0625 208.332031 74.015625 208.179688 73.96875 208.007812 L 73.835938 207.488281 L 73.3125 205.433594 L 73.074219 204.402344 C 72.429688 201.695312 71.933594 198.964844 71.585938 196.203125 C 71.25 193.503906 71.105469 190.796875 71.144531 188.078125 C 71.195312 185.355469 71.421875 182.585938 71.671875 179.664062 C 71.921875 176.742188 72.152344 173.726562 72.242188 170.667969 C 72.328125 167.609375 72.300781 164.535156 72.144531 161.484375 C 71.988281 158.433594 71.707031 155.402344 71.363281 152.390625 C 71.09375 150.128906 70.777344 147.882812 70.425781 145.644531 C 71.078125 145.925781 71.722656 146.214844 72.363281 146.515625 C 72.683594 146.65625 73.003906 146.808594 73.320312 146.960938 L 74.269531 147.410156 C 74.902344 147.71875 75.535156 148.019531 76.160156 148.339844 C 78.675781 149.59375 81.132812 150.945312 83.53125 152.386719 C 85.925781 153.832031 88.277344 155.335938 90.5625 156.925781 C 95.105469 160.09375 99.378906 163.585938 103.386719 167.410156 C 107.347656 171.203125 110.945312 175.3125 114.175781 179.742188 L 115.351562 181.417969 L 115.644531 181.839844 C 115.742188 181.976562 115.832031 182.117188 115.925781 182.257812 L 117.042969 183.96875 L 117.574219 184.839844 L 118.109375 185.710938 L 118.378906 186.148438 L 118.632812 186.59375 L 119.644531 188.371094 L 120.597656 190.1875 L 120.839844 190.640625 L 121.0625 191.097656 L 121.515625 192.019531 L 121.964844 192.945312 C 122.105469 193.253906 122.246094 193.566406 122.386719 193.878906 C 122.664062 194.507812 122.953125 195.128906 123.214844 195.761719 L 123.992188 197.667969 C 124.132812 197.984375 124.242188 198.308594 124.359375 198.632812 L 124.714844 199.601562 L 125.074219 200.570312 L 125.394531 201.550781 C 126.300781 204.15625 127.042969 206.832031 127.757812 209.53125 C 127.921875 210.210938 128.089844 210.890625 128.265625 211.570312 C 128.355469 211.910156 128.425781 212.253906 128.5 212.597656 L 128.730469 213.628906 C 129.0625 215 129.300781 216.390625 129.59375 217.78125 C 129.671875 218.128906 129.734375 218.480469 129.785156 218.832031 L 130.160156 220.941406 L 130.257812 221.46875 L 130.335938 222.003906 C 130.539062 223.421875 130.804688 224.84375 130.972656 226.28125 L 131.273438 228.445312 C 131.351562 229.167969 131.4375 229.894531 131.527344 230.625 C 131.726562 232.082031 131.84375 233.550781 132.015625 235.027344 C 132.054688 235.398438 132.109375 235.769531 132.136719 236.144531 L 132.238281 237.261719 L 132.363281 238.496094 C 129.292969 254.105469 128.832031 270.171875 130.765625 285.828125 L 130.953125 287.378906 C 131.011719 287.894531 131.101562 288.410156 131.171875 288.925781 C 131.324219 289.957031 131.472656 290.988281 131.640625 292.015625 L 132.175781 295.085938 C 132.257812 295.597656 132.363281 296.109375 132.464844 296.621094 L 132.765625 298.152344 C 133.605469 302.222656 134.558594 306.261719 135.699219 310.246094 C 137.957031 318.203125 140.757812 325.964844 144.101562 333.527344 C 145.769531 337.289062 147.558594 340.984375 149.46875 344.617188 C 151.378906 348.25 153.410156 351.808594 155.5625 355.285156 C 156.101562 356.15625 156.640625 357.023438 157.191406 357.882812 C 157.746094 358.742188 158.300781 359.597656 158.871094 360.445312 C 160.011719 362.140625 161.164062 363.824219 162.359375 365.472656 C 163.558594 367.121094 164.785156 368.75 166.054688 370.34375 C 167.324219 371.9375 168.617188 373.507812 169.996094 375 C 169.449219 374.148438 168.917969 373.285156 168.402344 372.410156 C 167.886719 371.542969 167.371094 370.671875 166.875 369.789062 C 165.875 368.03125 164.898438 366.265625 163.960938 364.484375 C 162.070312 360.921875 160.300781 357.300781 158.617188 353.652344 C 155.273438 346.367188 152.335938 338.917969 149.808594 331.3125 C 147.300781 323.765625 145.25 316.097656 143.660156 308.304688 L 143.101562 305.394531 L 142.589844 302.476562 C 142.410156 301.507812 142.277344 300.53125 142.125 299.558594 L 141.898438 298.09375 L 141.707031 296.632812 L 141.511719 295.167969 C 141.445312 294.679688 141.378906 294.1875 141.328125 293.703125 L 141.007812 290.769531 C 140.910156 289.792969 140.835938 288.816406 140.746094 287.835938 C 140.707031 287.347656 140.652344 286.859375 140.625 286.371094 L 140.53125 284.898438 L 140.4375 283.433594 C 140.421875 283.1875 140.402344 282.941406 140.394531 282.699219 L 140.367188 281.964844 L 140.246094 279.03125 L 140.195312 276.097656 C 140.195312 275.609375 140.171875 275.121094 140.179688 274.632812 L 140.199219 273.164062 L 140.210938 271.699219 L 140.210938 270.964844 L 140.238281 270.234375 L 140.339844 267.300781 C 140.347656 266.8125 140.390625 266.324219 140.417969 265.839844 L 140.597656 262.917969 C 140.632812 262.429688 140.683594 261.941406 140.722656 261.460938 L 140.980469 258.546875 L 141.320312 255.644531 C 141.382812 255.164062 141.425781 254.679688 141.5 254.195312 L 141.914062 251.304688 C 141.984375 250.824219 142.042969 250.339844 142.132812 249.863281 C 142.472656 247.945312 142.773438 246.027344 143.191406 244.125 L 143.476562 242.695312 C 143.574219 242.21875 143.664062 241.742188 143.78125 241.269531 L 144.445312 238.433594 C 144.65625 237.480469 144.921875 236.546875 145.167969 235.609375 C 145.417969 234.671875 145.652344 233.726562 145.921875 232.792969 L 146.761719 230 C 146.902344 229.535156 147.03125 229.070312 147.179688 228.605469 L 147.640625 227.222656 L 148.554688 224.453125 L 149.546875 221.714844 C 150.183594 219.878906 150.945312 218.082031 151.65625 216.277344 L 151.929688 215.601562 C 152.019531 215.375 152.121094 215.152344 152.207031 214.929688 L 152.789062 213.59375 C 153.179688 212.699219 153.558594 211.804688 153.953125 210.917969 L 155.199219 208.277344 C 155.617188 207.394531 156.015625 206.511719 156.472656 205.648438 L 157.792969 203.042969 L 158.125 202.390625 C 158.234375 202.171875 158.34375 201.957031 158.464844 201.746094 L 159.160156 200.460938 L 160.558594 197.894531 C 160.785156 197.464844 161.042969 197.050781 161.289062 196.628906 L 162.027344 195.371094 L 163.507812 192.84375 L 165.0625 190.359375 L 165.84375 189.117188 C 166.101562 188.699219 166.355469 188.289062 166.632812 187.882812 L 168.265625 185.445312 C 169.324219 183.800781 170.484375 182.21875 171.617188 180.621094 L 172.464844 179.421875 L 172.679688 179.121094 L 172.90625 178.808594 L 173.359375 178.1875 C 173.964844 177.363281 174.558594 176.535156 175.152344 175.703125 C 179.902344 169.078125 184.546875 162.390625 189.082031 155.644531 C 198.164062 142.121094 206.882812 128.375 215.058594 114.261719 Z M 317.171875 163.738281 C 311.703125 157.628906 301.714844 146.347656 296.25 139.464844 C 294.738281 137.5625 294.539062 136.972656 297.199219 129.605469 C 298.53125 125.917969 300.191406 121.328125 301.125 115.792969 C 302.222656 109.25 302.101562 102.699219 300.753906 95.761719 C 299.351562 88.53125 296.636719 80.527344 292.695312 71.976562 C 290.34375 66.882812 287.730469 61.925781 284.855469 57.109375 C 283.179688 54.296875 281.375 51.523438 279.507812 48.84375 L 270.503906 35.957031 C 270.503906 35.957031 292.925781 85.855469 292.578125 102.957031 C 292.578125 102.960938 292.578125 102.96875 292.578125 102.976562 C 294.464844 125.050781 279.902344 133.535156 289.113281 145.132812 C 294.699219 152.164062 304.714844 163.480469 310.378906 169.8125 C 310.65625 170.121094 310.894531 170.453125 311.101562 170.8125 C 311.304688 171.167969 311.472656 171.542969 311.597656 171.9375 C 311.726562 172.328125 311.8125 172.730469 311.855469 173.140625 C 311.898438 173.550781 311.898438 173.960938 311.855469 174.371094 C 311.8125 174.78125 311.730469 175.183594 311.601562 175.574219 C 311.476562 175.96875 311.308594 176.34375 311.105469 176.703125 C 310.902344 177.058594 310.660156 177.394531 310.386719 177.703125 C 310.113281 178.007812 309.808594 178.285156 309.476562 178.53125 C 306.210938 180.945312 301.847656 183.863281 297.804688 185.574219 C 290.011719 188.867188 293.613281 196.957031 298.101562 201.449219 C 302.59375 205.945312 298.101562 211.933594 293.308594 213.136719 C 288.511719 214.335938 296.15625 217.183594 297.5 221.074219 C 298.839844 224.960938 298.695312 228.261719 291.054688 234.703125 C 283.414062 241.144531 283.414062 255.074219 283.414062 265.261719 C 283.414062 273.484375 279.113281 278.777344 262.324219 278.777344 C 258.316406 278.777344 253.597656 278.476562 248.058594 277.84375 C 237.273438 276.605469 224.335938 273.394531 212.382812 273.390625 C 198.605469 273.390625 186.125 277.660156 179.734375 294.148438 C 179.367188 295.09375 179.019531 296.082031 178.691406 297.109375 C 175.015625 310.023438 177.296875 334.835938 184.351562 356.648438 L 184.351562 324.277344 C 184.351562 307.394531 187.28125 295.605469 193.078125 289.230469 C 197.25 284.640625 203.382812 282.503906 212.382812 282.503906 C 219.433594 282.503906 227.1875 283.796875 234.6875 285.046875 C 238.988281 285.765625 243.046875 286.445312 247.019531 286.894531 C 252.867188 287.566406 257.871094 287.890625 262.324219 287.890625 C 272.484375 287.890625 279.5625 286.152344 284.597656 282.425781 C 287.492188 280.304688 289.605469 277.578125 290.9375 274.246094 C 292.011719 271.582031 292.53125 268.644531 292.53125 265.261719 C 292.53125 257.824219 292.53125 245.378906 296.933594 241.664062 C 301.835938 237.535156 304.675781 234.011719 306.152344 230.234375 C 308.136719 225.148438 307.085938 220.867188 306.121094 218.085938 C 305.859375 217.328125 305.535156 216.597656 305.144531 215.894531 C 306.734375 214.035156 307.863281 211.925781 308.535156 209.574219 C 309.242188 207.054688 309.273438 204.523438 308.625 201.984375 C 307.949219 199.375 306.582031 197.023438 304.558594 195.003906 C 304.003906 194.449219 303.515625 193.839844 303.09375 193.179688 C 306.65625 191.480469 310.621094 189.019531 314.910156 185.851562 C 315.328125 185.539062 315.730469 185.210938 316.117188 184.859375 C 316.5 184.507812 316.867188 184.136719 317.214844 183.746094 C 317.5625 183.355469 317.886719 182.949219 318.191406 182.523438 C 318.496094 182.101562 318.777344 181.660156 319.035156 181.207031 C 319.292969 180.753906 319.527344 180.289062 319.738281 179.8125 C 319.949219 179.335938 320.132812 178.847656 320.292969 178.351562 C 320.453125 177.855469 320.585938 177.351562 320.695312 176.839844 C 320.800781 176.328125 320.878906 175.8125 320.933594 175.296875 C 320.988281 174.777344 321.015625 174.253906 321.011719 173.734375 C 321.011719 173.210938 320.984375 172.691406 320.929688 172.171875 C 320.875 171.652344 320.792969 171.140625 320.683594 170.628906 C 320.574219 170.117188 320.441406 169.613281 320.28125 169.117188 C 320.117188 168.621094 319.933594 168.136719 319.722656 167.660156 C 319.507812 167.179688 319.273438 166.71875 319.015625 166.265625 C 318.753906 165.8125 318.472656 165.375 318.164062 164.953125 C 317.859375 164.527344 317.53125 164.121094 317.183594 163.734375 Z M 317.171875 163.738281 " fill-opacity="1" fill-rule="nonzero"/></g></svg>